<svg width="50" height="50" viewBox="0 0 50 50" fill="none" xmlns="http://www.w3.org/2000/svg">
    <g id="Logo-a1">
        <g id="logo-svg" >
            <mask  id="path-1-inside-1_645_638" fill="white">
                <path  d="M22.4689 8.0043C24.1339 8.0043 25.7787 8.00574 27.4234 8.00381C28.591 8.00244 29.5684 8.43654 30.3303 9.31445C30.8363 9.89743 31.1488 10.5805 31.2002 11.3644C31.2187 11.6456 31.2395 11.9274 31.2396 12.209C31.2418 19.7694 31.2413 27.3298 31.2413 34.8902C31.2413 34.9769 31.2413 35.0636 31.2413 35.1624C33.9929 35.1624 36.7295 35.1624 39.476 35.1624C39.476 28.1319 39.476 21.1088 39.476 14.0682C37.4089 14.0682 35.3413 14.0682 33.2267 14.0682C34.0562 12.0279 34.8731 10.0187 35.692 8.00434C35.7786 8.00434 35.8595 8.00434 35.9404 8.00434C38.3229 8.00434 40.7054 8.01292 43.0878 8.00008C44.0283 7.995 44.8814 8.24561 45.6043 8.83427C46.2938 9.39565 46.7601 10.1247 46.9124 11.0167C46.9728 11.3704 46.9957 11.7345 46.9959 12.094C47.0003 20.4598 47.0033 28.8256 46.9933 37.1914C46.9923 38.047 46.7037 38.8209 46.1545 39.4991C45.5335 40.266 44.728 40.6863 43.7757 40.8557C43.5796 40.8906 43.3766 40.8992 43.1768 40.8993C37.9718 40.9016 32.7669 40.9053 27.5619 40.8974C26.5729 40.8959 25.6854 40.5919 24.9414 39.9058C24.2932 39.3081 23.8876 38.5909 23.7688 37.7158C23.7482 37.5639 23.7297 37.4102 23.7296 37.2574C23.7273 34.2454 23.7279 31.2335 23.7279 28.2215C23.7279 28.1404 23.7279 28.0593 23.7279 27.9619C21.4451 27.9619 19.1687 27.9619 16.8695 27.9619C16.8695 31.22 16.8695 34.4834 16.8695 37.8106C16.6182 37.4936 16.3329 37.3509 15.996 37.4174C15.818 37.4525 15.6291 37.5485 15.4961 37.672C15.1896 37.9565 15.1325 38.4489 15.4248 38.8276C15.6018 39.0569 15.843 39.1555 16.1401 39.1598C16.4334 39.1641 16.6335 39.0058 16.8243 38.8171C16.8243 39.4101 16.8649 39.9824 16.8095 40.5452C16.7746 40.8995 16.3956 41.1068 16.0249 41.0597C15.7127 41.0201 15.412 40.8233 15.3595 40.4244C15.3024 39.991 14.9971 39.6979 14.6342 39.68C14.2436 39.6608 13.9162 39.9453 13.8551 40.3963C13.7999 40.8031 13.5511 41.0017 13.2179 41.0589C12.8639 41.1198 12.522 40.917 12.3932 40.5929C12.338 40.4539 12.3241 40.2988 12.2732 40.1576C12.1234 39.7416 11.6361 39.5499 11.263 39.7654C11.0017 39.9164 10.891 40.1657 10.8515 40.4592C10.8034 40.8167 10.4516 41.0831 10.0747 41.0635C9.69766 41.0438 9.3632 40.7499 9.35456 40.3958C9.34109 39.8431 9.351 39.2898 9.351 38.6852C9.59082 39.0387 9.88948 39.2182 10.2663 39.1446C10.4593 39.1068 10.6693 39.0001 10.8061 38.8604C11.1816 38.4771 11.1068 37.9207 10.6686 37.5753C10.3313 37.3094 9.74821 37.2975 9.35819 37.8681C9.35819 34.5425 9.35819 31.2544 9.35819 27.9473C7.75981 27.9473 6.18703 27.9473 4.55573 27.9473C4.80426 27.6826 5.01322 27.4329 4.87493 27.0971C4.81405 26.9492 4.70871 26.7939 4.58001 26.705C4.27834 26.4965 3.93535 26.5359 3.65593 26.8364C3.36968 27.1444 3.39698 27.3978 3.80231 27.9454C3.43229 27.9454 3.08534 27.9552 2.73942 27.9407C2.59876 27.9348 2.45399 27.8914 2.32226 27.8377C2.07581 27.7373 1.97405 27.4242 2.00557 27.2484C2.06638 26.9091 2.28202 26.7024 2.5686 26.6865C2.93464 26.6661 3.18057 26.4326 3.17758 26.1081C3.17434 25.7561 2.94408 25.5324 2.56841 25.5077C2.3066 25.4905 2.00631 25.2548 2.00591 24.885C2.00554 24.5454 2.22353 24.2889 2.59728 24.2523C2.88055 24.2246 3.08323 24.0867 3.16272 23.824C3.23274 23.5926 3.17094 23.3613 2.96527 23.2128C2.86368 23.1394 2.72608 23.0823 2.60316 23.079C2.33577 23.072 1.99817 22.8088 2.00503 22.4455C2.01158 22.0983 2.22313 21.8459 2.57724 21.8198C2.97305 21.7907 3.37265 21.8131 3.74268 21.8131C3.64824 22.0276 3.50773 22.232 3.4745 22.4526C3.43713 22.7008 3.59886 22.9127 3.80243 23.0581C4.09361 23.266 4.45075 23.2103 4.71659 22.9337C5.00812 22.6304 4.9812 22.3698 4.584 21.8221C6.1798 21.8221 7.75537 21.8221 9.3508 21.8221C9.3508 21.7213 9.3508 21.6488 9.3508 21.5763C9.35081 20.1278 9.34295 18.6793 9.35381 17.2309C9.36015 16.3863 9.63472 15.6206 10.1958 14.9907C10.5568 14.5854 10.9842 14.2388 11.3853 13.8697C11.6369 13.6381 11.8932 13.4117 12.1503 13.1861C12.6814 12.72 13.215 12.2566 13.7464 11.7909C14.0976 11.483 14.4458 11.1717 14.7972 10.864C15.324 10.4026 15.8506 9.94093 16.3808 9.48349C16.723 9.18823 17.0562 8.8791 17.4212 8.61452C17.8712 8.28839 18.3902 8.07341 18.9446 8.05353C20.1117 8.01168 21.2805 8.01784 22.4689 8.0043ZM17.8823 16.7547C17.6613 16.9486 17.4435 17.1463 17.2183 17.3352C16.982 17.5334 16.8432 17.7403 16.8524 18.0895C16.8835 19.2662 16.8642 20.4442 16.8642 21.6217C16.8642 21.6938 16.8642 21.7659 16.8642 21.8398C19.1638 21.8398 21.4399 21.8398 23.7123 21.8398C23.7123 19.2522 23.7123 16.6783 23.7123 14.0963C22.8512 14.0963 22.0057 14.102 21.1603 14.0918C20.9761 14.0896 20.8435 14.1352 20.7209 14.274C20.6019 14.4087 20.4556 14.5197 20.3192 14.6387C19.8017 15.0905 19.2834 15.5412 18.7655 15.9924C18.4795 16.2415 18.1935 16.4906 17.8823 16.7547ZM13.9801 38.3823C14.0265 37.9985 13.834 37.7359 13.5287 37.5513C13.2424 37.3782 12.9402 37.4155 12.66 37.5752C12.0839 37.9035 12.0783 38.741 12.6725 39.0899C12.9535 39.255 13.2335 39.267 13.5113 39.1158C13.7835 38.9677 13.9761 38.7508 13.9801 38.3823ZM4.86934 25.1762C4.88731 25.0922 4.92847 25.0056 4.9195 24.9245C4.86104 24.3962 4.30012 24.0193 3.83372 24.3304C3.38962 24.6266 3.33052 25.1644 3.77113 25.523C4.14696 25.8288 4.69106 25.6098 4.86934 25.1762ZM15.1838 35.9507C14.9253 35.5198 14.4002 35.4952 14.0898 35.8993C13.9457 36.0868 13.9403 36.4346 14.0784 36.6318C14.222 36.8371 14.5546 36.957 14.7789 36.8844C15.2014 36.7478 15.3624 36.4001 15.1838 35.9507ZM11.3408 35.6638C11.3027 35.6897 11.2647 35.716 11.2264 35.7416C11.011 35.8854 10.9036 36.2403 11.0034 36.4823C11.1466 36.83 11.4117 36.9421 11.6896 36.9141C12.0297 36.8797 12.3334 36.4823 12.2352 36.0971C12.1415 35.7296 11.7524 35.529 11.3408 35.6638ZM6.39186 23.5829C6.37312 23.5403 6.35649 23.4966 6.33531 23.4553C6.23579 23.2613 5.99095 23.1475 5.77937 23.1956C5.57188 23.2428 5.38989 23.4575 5.36964 23.663C5.33373 24.0274 5.63273 24.2421 5.88574 24.2457C6.20238 24.2502 6.44421 23.9443 6.39186 23.5829ZM6.38498 25.9906C6.20865 25.6685 5.97861 25.5645 5.68715 25.6752C5.44892 25.7657 5.30175 26.0818 5.38818 26.3174C5.47997 26.5676 5.78517 26.7469 6.00108 26.6775C6.29891 26.5819 6.47173 26.2927 6.38498 25.9906ZM10.4287 33.9169C10.2081 33.7345 9.95036 33.745 9.79228 33.9426C9.65569 34.1134 9.69318 34.3984 9.87022 34.5351C10.0085 34.642 10.2577 34.6343 10.3913 34.5191C10.5573 34.376 10.5785 34.1694 10.4287 33.9169ZM12.6814 34.1509C12.6815 34.1847 12.6765 34.2193 12.6824 34.2519C12.7153 34.4334 12.8809 34.5886 13.0566 34.6058C13.2536 34.625 13.4265 34.517 13.4939 34.3325C13.5604 34.1505 13.4983 33.972 13.3269 33.8521C13.0998 33.6933 12.8515 33.7959 12.6814 34.1509ZM15.7406 34.3948C15.7882 34.4423 15.8306 34.497 15.8844 34.5359C16.0289 34.6406 16.1912 34.6438 16.3295 34.5437C16.4695 34.4424 16.5801 34.3089 16.5117 34.1069C16.4329 33.8742 16.2195 33.7407 16.0057 33.7984C15.7733 33.8611 15.6545 34.1048 15.7406 34.3948ZM7.61397 26.9738C7.55685 26.987 7.49686 26.9931 7.44317 27.0147C7.29716 27.0736 7.19589 27.2934 7.24568 27.4313C7.2972 27.574 7.51634 27.719 7.63744 27.6512C7.75241 27.5868 7.88977 27.4654 7.90924 27.3508C7.9367 27.1891 7.82287 27.0427 7.61397 26.9738ZM7.80504 22.7284C7.95785 22.5398 7.95122 22.4135 7.78009 22.2534C7.65921 22.1403 7.45261 22.1481 7.3305 22.2704C7.20897 22.3921 7.20363 22.5957 7.3186 22.7243C7.43664 22.8563 7.62867 22.8671 7.80504 22.7284ZM7.92475 24.9558C7.91221 24.9119 7.91363 24.8506 7.88459 24.8274C7.78667 24.7494 7.6831 24.6421 7.5717 24.6286C7.48146 24.6177 7.33156 24.7036 7.2906 24.787C7.24455 24.8808 7.24729 25.0571 7.30882 25.1297C7.3797 25.2133 7.55126 25.2752 7.65473 25.2492C7.75491 25.2241 7.82414 25.0755 7.92475 24.9558ZM11.7204 31.7991C11.611 31.7244 11.5088 31.7464 11.443 31.85C11.3988 31.9195 11.3482 32.0311 11.3752 32.0889C11.4143 32.1724 11.5198 32.274 11.5994 32.2761C11.684 32.2782 11.7991 32.1911 11.8508 32.1108C11.9242 31.9969 11.8355 31.8977 11.7204 31.7991ZM14.4727 31.8219C14.371 31.9098 14.2775 32.0061 14.3862 32.1433C14.4711 32.2505 14.5795 32.347 14.724 32.2436C14.8189 32.1757 14.9215 32.0937 14.8398 31.9472C14.7623 31.8081 14.6753 31.6966 14.4727 31.8219ZM9.20426 23.5628C9.20686 23.657 9.1744 23.7838 9.22258 23.8356C9.26509 23.8814 9.41351 23.872 9.48461 23.8323C9.52985 23.807 9.55647 23.6615 9.52591 23.6059C9.46529 23.4956 9.35341 23.4406 9.20426 23.5628ZM9.47246 26.0153C9.35807 25.895 9.25343 25.9543 9.197 26.0615C9.16378 26.1246 9.17187 26.2715 9.21368 26.2979C9.28087 26.3404 9.41354 26.3495 9.47823 26.3087C9.56822 26.252 9.60057 26.1354 9.47246 26.0153Z"/>
            </mask>
            <path class="logo-svg" d="M22.4689 8.0043C24.1339 8.0043 25.7787 8.00574 27.4234 8.00381C28.591 8.00244 29.5684 8.43654 30.3303 9.31445C30.8363 9.89743 31.1488 10.5805 31.2002 11.3644C31.2187 11.6456 31.2395 11.9274 31.2396 12.209C31.2418 19.7694 31.2413 27.3298 31.2413 34.8902C31.2413 34.9769 31.2413 35.0636 31.2413 35.1624C33.9929 35.1624 36.7295 35.1624 39.476 35.1624C39.476 28.1319 39.476 21.1088 39.476 14.0682C37.4089 14.0682 35.3413 14.0682 33.2267 14.0682C34.0562 12.0279 34.8731 10.0187 35.692 8.00434C35.7786 8.00434 35.8595 8.00434 35.9404 8.00434C38.3229 8.00434 40.7054 8.01292 43.0878 8.00008C44.0283 7.995 44.8814 8.24561 45.6043 8.83427C46.2938 9.39565 46.7601 10.1247 46.9124 11.0167C46.9728 11.3704 46.9957 11.7345 46.9959 12.094C47.0003 20.4598 47.0033 28.8256 46.9933 37.1914C46.9923 38.047 46.7037 38.8209 46.1545 39.4991C45.5335 40.266 44.728 40.6863 43.7757 40.8557C43.5796 40.8906 43.3766 40.8992 43.1768 40.8993C37.9718 40.9016 32.7669 40.9053 27.5619 40.8974C26.5729 40.8959 25.6854 40.5919 24.9414 39.9058C24.2932 39.3081 23.8876 38.5909 23.7688 37.7158C23.7482 37.5639 23.7297 37.4102 23.7296 37.2574C23.7273 34.2454 23.7279 31.2335 23.7279 28.2215C23.7279 28.1404 23.7279 28.0593 23.7279 27.9619C21.4451 27.9619 19.1687 27.9619 16.8695 27.9619C16.8695 31.22 16.8695 34.4834 16.8695 37.8106C16.6182 37.4936 16.3329 37.3509 15.996 37.4174C15.818 37.4525 15.6291 37.5485 15.4961 37.672C15.1896 37.9565 15.1325 38.4489 15.4248 38.8276C15.6018 39.0569 15.843 39.1555 16.1401 39.1598C16.4334 39.1641 16.6335 39.0058 16.8243 38.8171C16.8243 39.4101 16.8649 39.9824 16.8095 40.5452C16.7746 40.8995 16.3956 41.1068 16.0249 41.0597C15.7127 41.0201 15.412 40.8233 15.3595 40.4244C15.3024 39.991 14.9971 39.6979 14.6342 39.68C14.2436 39.6608 13.9162 39.9453 13.8551 40.3963C13.7999 40.8031 13.5511 41.0017 13.2179 41.0589C12.8639 41.1198 12.522 40.917 12.3932 40.5929C12.338 40.4539 12.3241 40.2988 12.2732 40.1576C12.1234 39.7416 11.6361 39.5499 11.263 39.7654C11.0017 39.9164 10.891 40.1657 10.8515 40.4592C10.8034 40.8167 10.4516 41.0831 10.0747 41.0635C9.69766 41.0438 9.3632 40.7499 9.35456 40.3958C9.34109 39.8431 9.351 39.2898 9.351 38.6852C9.59082 39.0387 9.88948 39.2182 10.2663 39.1446C10.4593 39.1068 10.6693 39.0001 10.8061 38.8604C11.1816 38.4771 11.1068 37.9207 10.6686 37.5753C10.3313 37.3094 9.74821 37.2975 9.35819 37.8681C9.35819 34.5425 9.35819 31.2544 9.35819 27.9473C7.75981 27.9473 6.18703 27.9473 4.55573 27.9473C4.80426 27.6826 5.01322 27.4329 4.87493 27.0971C4.81405 26.9492 4.70871 26.7939 4.58001 26.705C4.27834 26.4965 3.93535 26.5359 3.65593 26.8364C3.36968 27.1444 3.39698 27.3978 3.80231 27.9454C3.43229 27.9454 3.08534 27.9552 2.73942 27.9407C2.59876 27.9348 2.45399 27.8914 2.32226 27.8377C2.07581 27.7373 1.97405 27.4242 2.00557 27.2484C2.06638 26.9091 2.28202 26.7024 2.5686 26.6865C2.93464 26.6661 3.18057 26.4326 3.17758 26.1081C3.17434 25.7561 2.94408 25.5324 2.56841 25.5077C2.3066 25.4905 2.00631 25.2548 2.00591 24.885C2.00554 24.5454 2.22353 24.2889 2.59728 24.2523C2.88055 24.2246 3.08323 24.0867 3.16272 23.824C3.23274 23.5926 3.17094 23.3613 2.96527 23.2128C2.86368 23.1394 2.72608 23.0823 2.60316 23.079C2.33577 23.072 1.99817 22.8088 2.00503 22.4455C2.01158 22.0983 2.22313 21.8459 2.57724 21.8198C2.97305 21.7907 3.37265 21.8131 3.74268 21.8131C3.64824 22.0276 3.50773 22.232 3.4745 22.4526C3.43713 22.7008 3.59886 22.9127 3.80243 23.0581C4.09361 23.266 4.45075 23.2103 4.71659 22.9337C5.00812 22.6304 4.9812 22.3698 4.584 21.8221C6.1798 21.8221 7.75537 21.8221 9.3508 21.8221C9.3508 21.7213 9.3508 21.6488 9.3508 21.5763C9.35081 20.1278 9.34295 18.6793 9.35381 17.2309C9.36015 16.3863 9.63472 15.6206 10.1958 14.9907C10.5568 14.5854 10.9842 14.2388 11.3853 13.8697C11.6369 13.6381 11.8932 13.4117 12.1503 13.1861C12.6814 12.72 13.215 12.2566 13.7464 11.7909C14.0976 11.483 14.4458 11.1717 14.7972 10.864C15.324 10.4026 15.8506 9.94093 16.3808 9.48349C16.723 9.18823 17.0562 8.8791 17.4212 8.61452C17.8712 8.28839 18.3902 8.07341 18.9446 8.05353C20.1117 8.01168 21.2805 8.01784 22.4689 8.0043ZM17.8823 16.7547C17.6613 16.9486 17.4435 17.1463 17.2183 17.3352C16.982 17.5334 16.8432 17.7403 16.8524 18.0895C16.8835 19.2662 16.8642 20.4442 16.8642 21.6217C16.8642 21.6938 16.8642 21.7659 16.8642 21.8398C19.1638 21.8398 21.4399 21.8398 23.7123 21.8398C23.7123 19.2522 23.7123 16.6783 23.7123 14.0963C22.8512 14.0963 22.0057 14.102 21.1603 14.0918C20.9761 14.0896 20.8435 14.1352 20.7209 14.274C20.6019 14.4087 20.4556 14.5197 20.3192 14.6387C19.8017 15.0905 19.2834 15.5412 18.7655 15.9924C18.4795 16.2415 18.1935 16.4906 17.8823 16.7547ZM13.9801 38.3823C14.0265 37.9985 13.834 37.7359 13.5287 37.5513C13.2424 37.3782 12.9402 37.4155 12.66 37.5752C12.0839 37.9035 12.0783 38.741 12.6725 39.0899C12.9535 39.255 13.2335 39.267 13.5113 39.1158C13.7835 38.9677 13.9761 38.7508 13.9801 38.3823ZM4.86934 25.1762C4.88731 25.0922 4.92847 25.0056 4.9195 24.9245C4.86104 24.3962 4.30012 24.0193 3.83372 24.3304C3.38962 24.6266 3.33052 25.1644 3.77113 25.523C4.14696 25.8288 4.69106 25.6098 4.86934 25.1762ZM15.1838 35.9507C14.9253 35.5198 14.4002 35.4952 14.0898 35.8993C13.9457 36.0868 13.9403 36.4346 14.0784 36.6318C14.222 36.8371 14.5546 36.957 14.7789 36.8844C15.2014 36.7478 15.3624 36.4001 15.1838 35.9507ZM11.3408 35.6638C11.3027 35.6897 11.2647 35.716 11.2264 35.7416C11.011 35.8854 10.9036 36.2403 11.0034 36.4823C11.1466 36.83 11.4117 36.9421 11.6896 36.9141C12.0297 36.8797 12.3334 36.4823 12.2352 36.0971C12.1415 35.7296 11.7524 35.529 11.3408 35.6638ZM6.39186 23.5829C6.37312 23.5403 6.35649 23.4966 6.33531 23.4553C6.23579 23.2613 5.99095 23.1475 5.77937 23.1956C5.57188 23.2428 5.38989 23.4575 5.36964 23.663C5.33373 24.0274 5.63273 24.2421 5.88574 24.2457C6.20238 24.2502 6.44421 23.9443 6.39186 23.5829ZM6.38498 25.9906C6.20865 25.6685 5.97861 25.5645 5.68715 25.6752C5.44892 25.7657 5.30175 26.0818 5.38818 26.3174C5.47997 26.5676 5.78517 26.7469 6.00108 26.6775C6.29891 26.5819 6.47173 26.2927 6.38498 25.9906ZM10.4287 33.9169C10.2081 33.7345 9.95036 33.745 9.79228 33.9426C9.65569 34.1134 9.69318 34.3984 9.87022 34.5351C10.0085 34.642 10.2577 34.6343 10.3913 34.5191C10.5573 34.376 10.5785 34.1694 10.4287 33.9169ZM12.6814 34.1509C12.6815 34.1847 12.6765 34.2193 12.6824 34.2519C12.7153 34.4334 12.8809 34.5886 13.0566 34.6058C13.2536 34.625 13.4265 34.517 13.4939 34.3325C13.5604 34.1505 13.4983 33.972 13.3269 33.8521C13.0998 33.6933 12.8515 33.7959 12.6814 34.1509ZM15.7406 34.3948C15.7882 34.4423 15.8306 34.497 15.8844 34.5359C16.0289 34.6406 16.1912 34.6438 16.3295 34.5437C16.4695 34.4424 16.5801 34.3089 16.5117 34.1069C16.4329 33.8742 16.2195 33.7407 16.0057 33.7984C15.7733 33.8611 15.6545 34.1048 15.7406 34.3948ZM7.61397 26.9738C7.55685 26.987 7.49686 26.9931 7.44317 27.0147C7.29716 27.0736 7.19589 27.2934 7.24568 27.4313C7.2972 27.574 7.51634 27.719 7.63744 27.6512C7.75241 27.5868 7.88977 27.4654 7.90924 27.3508C7.9367 27.1891 7.82287 27.0427 7.61397 26.9738ZM7.80504 22.7284C7.95785 22.5398 7.95122 22.4135 7.78009 22.2534C7.65921 22.1403 7.45261 22.1481 7.3305 22.2704C7.20897 22.3921 7.20363 22.5957 7.3186 22.7243C7.43664 22.8563 7.62867 22.8671 7.80504 22.7284ZM7.92475 24.9558C7.91221 24.9119 7.91363 24.8506 7.88459 24.8274C7.78667 24.7494 7.6831 24.6421 7.5717 24.6286C7.48146 24.6177 7.33156 24.7036 7.2906 24.787C7.24455 24.8808 7.24729 25.0571 7.30882 25.1297C7.3797 25.2133 7.55126 25.2752 7.65473 25.2492C7.75491 25.2241 7.82414 25.0755 7.92475 24.9558ZM11.7204 31.7991C11.611 31.7244 11.5088 31.7464 11.443 31.85C11.3988 31.9195 11.3482 32.0311 11.3752 32.0889C11.4143 32.1724 11.5198 32.274 11.5994 32.2761C11.684 32.2782 11.7991 32.1911 11.8508 32.1108C11.9242 31.9969 11.8355 31.8977 11.7204 31.7991ZM14.4727 31.8219C14.371 31.9098 14.2775 32.0061 14.3862 32.1433C14.4711 32.2505 14.5795 32.347 14.724 32.2436C14.8189 32.1757 14.9215 32.0937 14.8398 31.9472C14.7623 31.8081 14.6753 31.6966 14.4727 31.8219ZM9.20426 23.5628C9.20686 23.657 9.1744 23.7838 9.22258 23.8356C9.26509 23.8814 9.41351 23.872 9.48461 23.8323C9.52985 23.807 9.55647 23.6615 9.52591 23.6059C9.46529 23.4956 9.35341 23.4406 9.20426 23.5628ZM9.47246 26.0153C9.35807 25.895 9.25343 25.9543 9.197 26.0615C9.16378 26.1246 9.17187 26.2715 9.21368 26.2979C9.28087 26.3404 9.41354 26.3495 9.47823 26.3087C9.56822 26.252 9.60057 26.1354 9.47246 26.0153Z" fill="#CCDBDE" stroke="#CCDBDE" stroke-width="2.34058" mask="url(#path-1-inside-1_645_638)"/>
        </g>
    </g>
</svg>
