<svg width="1335" height="883" viewBox="0 0 1335 883" fill="none" xmlns="http://www.w3.org/2000/svg">
<rect x="404.355" y="0.355155" width="144.193" height="144.193" stroke="#798183" stroke-opacity="0.4" stroke-width="0.710311" stroke-dasharray="14.21 71.03"/>
<rect x="404.355" y="145.257" width="144.193" height="144.193" stroke="#798183" stroke-opacity="0.4" stroke-width="0.710311" stroke-dasharray="14.21 71.03"/>
<rect x="589.036" y="289.453" width="144.193" height="144.193" stroke="#798183" stroke-opacity="0.4" stroke-width="0.710311" stroke-dasharray="14.21 71.03"/>
<rect x="549.258" y="0.355155" width="144.193" height="144.193" stroke="#798183" stroke-opacity="0.4" stroke-width="0.710311" stroke-dasharray="14.21 71.03"/>
<rect x="549.258" y="145.257" width="144.193" height="144.193" stroke="#798183" stroke-opacity="0.4" stroke-width="0.710311" stroke-dasharray="14.21 71.03"/>
<rect x="733.94" y="289.453" width="144.193" height="144.193" stroke="#798183" stroke-opacity="0.4" stroke-width="0.710311" stroke-dasharray="14.21 71.03"/>
<rect x="694.162" y="0.355155" width="144.193" height="144.193" stroke="#798183" stroke-opacity="0.4" stroke-width="0.710311" stroke-dasharray="14.21 71.03"/>
<rect x="1045.06" y="144.547" width="144.193" height="144.193" stroke="#798183" stroke-opacity="0.4" stroke-width="0.710311" stroke-dasharray="14.21 71.03"/>
<rect x="694.162" y="145.257" width="144.193" height="144.193" stroke="#798183" stroke-opacity="0.4" stroke-width="0.710311" stroke-dasharray="14.21 71.03"/>
<rect x="878.843" y="289.453" width="144.193" height="144.193" stroke="#798183" stroke-opacity="0.4" stroke-width="0.710311" stroke-dasharray="14.21 71.03"/>
<rect x="839.066" y="0.355155" width="144.193" height="144.193" stroke="#798183" stroke-opacity="0.4" stroke-width="0.710311" stroke-dasharray="14.21 71.03"/>
<rect x="1189.96" y="144.547" width="144.193" height="144.193" stroke="#798183" stroke-opacity="0.4" stroke-width="0.710311" stroke-dasharray="14.21 71.03"/>
<rect x="839.066" y="145.257" width="144.193" height="144.193" stroke="#798183" stroke-opacity="0.4" stroke-width="0.710311" stroke-dasharray="14.21 71.03"/>
<rect x="1023.75" y="289.453" width="144.193" height="144.193" stroke="#798183" stroke-opacity="0.4" stroke-width="0.710311" stroke-dasharray="14.21 71.03"/>
<rect x="617.293" y="525.293" width="118.943" height="118.943" stroke="#798183" stroke-opacity="0.4" stroke-width="0.585925" stroke-dasharray="11.72 100"/>
<rect x="617.293" y="644.82" width="118.943" height="118.943" stroke="#798183" stroke-opacity="0.4" stroke-width="0.585925" stroke-dasharray="11.72 100"/>
<rect x="769.634" y="763.766" width="118.943" height="118.943" stroke="#798183" stroke-opacity="0.4" stroke-width="0.585925" stroke-dasharray="11.72 100"/>
<rect x="736.822" y="644.82" width="118.943" height="118.943" stroke="#798183" stroke-opacity="0.4" stroke-width="0.585925" stroke-dasharray="11.72 100"/>
<rect x="1145.8" y="644.234" width="118.943" height="118.943" stroke="#798183" stroke-opacity="0.4" stroke-width="0.585925" stroke-dasharray="11.72 100"/>
<rect x="975.88" y="525.293" width="118.943" height="118.943" stroke="#798183" stroke-opacity="0.4" stroke-width="0.585925" stroke-dasharray="11.72 100"/>
<rect x="975.88" y="644.82" width="118.943" height="118.943" stroke="#798183" stroke-opacity="0.4" stroke-width="0.585925" stroke-dasharray="11.72 100"/>
<rect x="1128.22" y="763.766" width="118.943" height="118.943" stroke="#798183" stroke-opacity="0.4" stroke-width="0.585925" stroke-dasharray="11.72 100"/>
<path d="M154 148V161" stroke="#1CBCD7" stroke-opacity="0.4"/>
<path d="M148 154H161" stroke="#1CBCD7" stroke-opacity="0.4"/>
<path d="M194 217V230" stroke="#1CBCD7" stroke-opacity="0.4"/>
<path d="M188 223H201" stroke="#1CBCD7" stroke-opacity="0.4"/>
<path d="M112 250V263" stroke="#1CBCD7" stroke-opacity="0.4"/>
<path d="M106 256H119" stroke="#1CBCD7" stroke-opacity="0.4"/>
<rect x="0.207031" y="455.207" width="105.586" height="105.586" stroke="#798183" stroke-opacity="0.4" stroke-width="0.414063" stroke-dasharray="12.42 49.69"/>
<rect x="106.207" y="455.207" width="105.586" height="105.586" stroke="#798183" stroke-opacity="0.4" stroke-width="0.414063" stroke-dasharray="12.42 49.69"/>
<rect x="0.207031" y="561.207" width="105.586" height="105.586" stroke="#798183" stroke-opacity="0.4" stroke-width="0.414063" stroke-dasharray="12.42 49.69"/>
</svg>
