<svg width="1921" height="976" viewBox="0 0 1921 976" fill="none" xmlns="http://www.w3.org/2000/svg">
<path d="M329.865 3.67578V11.644" stroke="#ABADB0" stroke-opacity="0.5"/>
<path d="M320.18 14.0977H328.251" stroke="#ABADB0" stroke-opacity="0.5"/>
<path d="M335.246 14.7109H332.018" stroke="#ABADB0" stroke-opacity="0.5"/>
<path d="M329.865 25.7413V17.1602" stroke="#ABADB0" stroke-opacity="0.5"/>
<path d="M9.68555 178.977V186.945" stroke="#ABADB0" stroke-opacity="0.5"/>
<path d="M0 189.398H8.07175" stroke="#ABADB0" stroke-opacity="0.5"/>
<path d="M15.0666 190.008H11.8379" stroke="#ABADB0" stroke-opacity="0.5"/>
<path d="M9.68555 201.042V192.461" stroke="#ABADB0" stroke-opacity="0.5"/>
<path d="M9.68555 0V7.96822" stroke="#ABADB0" stroke-opacity="0.5"/>
<path d="M0 10.4219H8.07175" stroke="#ABADB0" stroke-opacity="0.5"/>
<path d="M15.0666 11.0312H11.8379" stroke="#ABADB0" stroke-opacity="0.5"/>
<path d="M9.68555 22.0655V13.4844" stroke="#ABADB0" stroke-opacity="0.5"/>
<rect x="1118.21" y="686.492" width="3.2287" height="3.67764" fill="#ABADB0" fill-opacity="0.5"/>
<rect width="3.2287" height="1.22588" transform="matrix(1 0 0 -1 417 244.395)" fill="#ABADB0" fill-opacity="0.5"/>
<rect width="3.2287" height="1.22588" transform="matrix(1 0 0 -1 940.627 226.785)" fill="#ABADB0" fill-opacity="0.5"/>
<rect width="3.2287" height="1.22588" transform="matrix(1 0 0 -1 1217.22 239.047)" fill="#ABADB0" fill-opacity="0.5"/>
<rect x="1193.54" y="726.945" width="3.2287" height="3.67764" fill="#ABADB0" fill-opacity="0.5"/>
<rect width="3.2287" height="1.22588" transform="matrix(1 0 0 -1 492.338 219.875)" fill="#ABADB0" fill-opacity="0.5"/>
<rect width="3.2287" height="1.22588" transform="matrix(1 0 0 -1 1015.96 202.27)" fill="#ABADB0" fill-opacity="0.5"/>
<rect width="3.2287" height="1.22588" transform="matrix(1 0 0 -1 1292.56 214.527)" fill="#ABADB0" fill-opacity="0.5"/>
<rect x="1261.35" y="767.398" width="3.2287" height="3.67764" fill="#ABADB0" fill-opacity="0.5"/>
<rect x="540.453" y="647" width="3.2287" height="2.45176" fill="#ABADB0" fill-opacity="0.5"/>
<rect width="3.2287" height="2.45176" transform="matrix(1 0 0 -1 560.141 196.586)" fill="#ABADB0" fill-opacity="0.5"/>
<rect width="3.2287" height="2.45176" transform="matrix(1 0 0 -1 1083.77 178.977)" fill="#ABADB0" fill-opacity="0.5"/>
<rect width="3.2287" height="2.45176" transform="matrix(1 0 0 -1 1360.36 191.234)" fill="#ABADB0" fill-opacity="0.5"/>
<rect x="1359.28" y="804.176" width="3.2287" height="3.67764" fill="#ABADB0" fill-opacity="0.5"/>
<rect x="638.389" y="675.195" width="3.2287" height="2.45176" fill="#ABADB0" fill-opacity="0.5"/>
<rect width="3.2287" height="1.22588" transform="matrix(1 0 0 -1 658.078 173.293)" fill="#ABADB0" fill-opacity="0.5"/>
<rect width="3.2287" height="1.22588" transform="matrix(1 0 0 -1 1181.7 155.684)" fill="#ABADB0" fill-opacity="0.5"/>
<rect width="3.2287" height="1.22588" transform="matrix(1 0 0 -1 1458.3 167.945)" fill="#ABADB0" fill-opacity="0.5"/>
<rect x="1365.74" y="804.176" width="3.2287" height="3.67764" fill="#ABADB0" fill-opacity="0.5"/>
<rect x="644.848" y="675.195" width="3.2287" height="2.45176" fill="#ABADB0" fill-opacity="0.5"/>
<rect width="3.2287" height="1.22588" transform="matrix(1 0 0 -1 664.535 173.293)" fill="#ABADB0" fill-opacity="0.5"/>
<rect width="3.2287" height="1.22588" transform="matrix(1 0 0 -1 1188.16 155.684)" fill="#ABADB0" fill-opacity="0.5"/>
<rect width="3.2287" height="1.22588" transform="matrix(1 0 0 -1 1464.75 167.945)" fill="#ABADB0" fill-opacity="0.5"/>
<rect x="1294.71" y="766.172" width="3.2287" height="3.67764" fill="#ABADB0" fill-opacity="0.5"/>
<rect x="325.021" y="644.812" width="3.2287" height="2.45176" fill="#ABADB0" fill-opacity="0.5"/>
<rect width="3.2287" height="2.45176" transform="matrix(1 0 0 -1 593.504 196.586)" fill="#ABADB0" fill-opacity="0.5"/>
<rect width="3.2287" height="2.45176" transform="matrix(1 0 0 -1 1117.13 178.977)" fill="#ABADB0" fill-opacity="0.5"/>
<rect width="3.2287" height="2.45176" transform="matrix(1 0 0 -1 1393.72 191.234)" fill="#ABADB0" fill-opacity="0.5"/>
<rect x="1293.63" y="730.625" width="3.2287" height="3.67764" fill="#ABADB0" fill-opacity="0.5"/>
<rect width="3.2287" height="2.45176" transform="matrix(1 0 0 -1 592.428 218.652)" fill="#ABADB0" fill-opacity="0.5"/>
<rect width="3.2287" height="2.45176" transform="matrix(1 0 0 -1 1116.05 201.043)" fill="#ABADB0" fill-opacity="0.5"/>
<rect width="3.2287" height="2.45176" transform="matrix(1 0 0 -1 1392.65 213.301)" fill="#ABADB0" fill-opacity="0.5"/>
<rect x="1295.79" y="685.266" width="3.2287" height="3.67764" fill="#ABADB0" fill-opacity="0.5"/>
<rect width="3.2287" height="2.45176" transform="matrix(1 0 0 -1 708.162 95.6172)" fill="#ABADB0" fill-opacity="0.5"/>
<rect width="3.2287" height="2.45176" transform="matrix(1 0 0 -1 1118.21 228.012)" fill="#ABADB0" fill-opacity="0.5"/>
<rect width="3.2287" height="2.45176" transform="matrix(1 0 0 -1 1394.8 240.27)" fill="#ABADB0" fill-opacity="0.5"/>
<rect x="1401.26" y="726.945" width="3.2287" height="3.67764" fill="#ABADB0" fill-opacity="0.5"/>
<rect width="3.2287" height="1.22588" transform="matrix(1 0 0 -1 700.051 219.875)" fill="#ABADB0" fill-opacity="0.5"/>
<rect width="3.2287" height="1.22588" transform="matrix(1 0 0 -1 1223.68 202.27)" fill="#ABADB0" fill-opacity="0.5"/>
<rect width="3.2287" height="1.22588" transform="matrix(1 0 0 -1 1500.27 214.527)" fill="#ABADB0" fill-opacity="0.5"/>
<rect x="1400.18" y="767.398" width="3.2287" height="3.67764" fill="#ABADB0" fill-opacity="0.5"/>
<rect x="679.287" y="647" width="3.2287" height="2.45176" fill="#ABADB0" fill-opacity="0.5"/>
<rect width="3.2287" height="2.45176" transform="matrix(1 0 0 -1 698.975 196.586)" fill="#ABADB0" fill-opacity="0.5"/>
<rect width="3.2287" height="2.45176" transform="matrix(1 0 0 -1 1222.6 178.977)" fill="#ABADB0" fill-opacity="0.5"/>
<rect width="3.2287" height="2.45176" transform="matrix(1 0 0 -1 1499.19 191.234)" fill="#ABADB0" fill-opacity="0.5"/>
<rect x="1328.07" y="834.824" width="3.2287" height="3.67764" fill="#ABADB0" fill-opacity="0.5"/>
<rect x="607.178" y="699.711" width="3.2287" height="2.45176" fill="#ABADB0" fill-opacity="0.5"/>
<rect width="3.2287" height="1.22588" transform="matrix(1 0 0 -1 626.867 154.906)" fill="#ABADB0" fill-opacity="0.5"/>
<rect width="3.2287" height="1.22588" transform="matrix(1 0 0 -1 1150.49 137.297)" fill="#ABADB0" fill-opacity="0.5"/>
<rect width="3.2287" height="1.22588" transform="matrix(1 0 0 -1 1427.09 149.555)" fill="#ABADB0" fill-opacity="0.5"/>
<rect x="1328.07" y="843.402" width="3.2287" height="3.67764" fill="#ABADB0" fill-opacity="0.5"/>
<rect x="607.178" y="705.84" width="3.2287" height="2.45176" fill="#ABADB0" fill-opacity="0.5"/>
<rect width="3.2287" height="2.45176" transform="matrix(1 0 0 -1 626.867 150)" fill="#ABADB0" fill-opacity="0.5"/>
<rect width="3.2287" height="2.45176" transform="matrix(1 0 0 -1 1150.49 132.395)" fill="#ABADB0" fill-opacity="0.5"/>
<rect width="3.2287" height="2.45176" transform="matrix(1 0 0 -1 1427.09 144.652)" fill="#ABADB0" fill-opacity="0.5"/>
<rect x="1224.75" y="844.629" width="3.2287" height="3.67764" fill="#ABADB0" fill-opacity="0.5"/>
<rect x="503.859" y="707.066" width="3.2287" height="2.45176" fill="#ABADB0" fill-opacity="0.5"/>
<rect width="3.2287" height="1.22588" transform="matrix(1 0 0 -1 523.549 148.773)" fill="#ABADB0" fill-opacity="0.5"/>
<rect width="3.2287" height="1.22588" transform="matrix(1 0 0 -1 1047.18 131.168)" fill="#ABADB0" fill-opacity="0.5"/>
<rect width="3.2287" height="1.22588" transform="matrix(1 0 0 -1 1323.77 143.426)" fill="#ABADB0" fill-opacity="0.5"/>
<rect x="1190.31" y="883.859" width="3.2287" height="3.67764" fill="#ABADB0" fill-opacity="0.5"/>
<rect x="469.42" y="737.715" width="3.2287" height="2.45176" fill="#ABADB0" fill-opacity="0.5"/>
<rect width="3.2287" height="2.45176" transform="matrix(1 0 0 -1 489.109 125.484)" fill="#ABADB0" fill-opacity="0.5"/>
<rect width="3.2287" height="2.45176" transform="matrix(1 0 0 -1 1012.74 107.875)" fill="#ABADB0" fill-opacity="0.5"/>
<rect width="3.2287" height="2.45176" transform="matrix(1 0 0 -1 1289.33 120.137)" fill="#ABADB0" fill-opacity="0.5"/>
<rect x="1295.79" y="929.215" width="3.2287" height="3.67764" fill="#ABADB0" fill-opacity="0.5"/>
<rect x="574.893" y="773.266" width="3.2287" height="2.45176" fill="#ABADB0" fill-opacity="0.5"/>
<rect width="3.2287" height="2.45176" transform="matrix(1 0 0 -1 594.58 98.5156)" fill="#ABADB0" fill-opacity="0.5"/>
<rect width="3.2287" height="2.45176" transform="matrix(1 0 0 -1 1118.21 80.9062)" fill="#ABADB0" fill-opacity="0.5"/>
<rect width="3.2287" height="2.45176" transform="matrix(1 0 0 -1 1394.8 93.1641)" fill="#ABADB0" fill-opacity="0.5"/>
<rect x="1169.87" y="804.176" width="3.2287" height="3.67764" fill="#ABADB0" fill-opacity="0.5"/>
<rect x="448.973" y="675.195" width="3.2287" height="2.45176" fill="#ABADB0" fill-opacity="0.5"/>
<rect width="3.2287" height="1.22588" transform="matrix(1 0 0 -1 468.66 173.293)" fill="#ABADB0" fill-opacity="0.5"/>
<rect width="3.2287" height="1.22588" transform="matrix(1 0 0 -1 992.287 155.684)" fill="#ABADB0" fill-opacity="0.5"/>
<rect width="3.2287" height="1.22588" transform="matrix(1 0 0 -1 1268.88 167.945)" fill="#ABADB0" fill-opacity="0.5"/>
<rect x="1222.6" y="767.398" width="3.2287" height="3.67764" fill="#ABADB0" fill-opacity="0.5"/>
<rect x="501.707" y="647" width="3.2287" height="2.45176" fill="#ABADB0" fill-opacity="0.5"/>
<rect width="3.2287" height="2.45176" transform="matrix(1 0 0 -1 521.396 196.586)" fill="#ABADB0" fill-opacity="0.5"/>
<rect width="3.2287" height="2.45176" transform="matrix(1 0 0 -1 1045.02 178.977)" fill="#ABADB0" fill-opacity="0.5"/>
<rect width="3.2287" height="2.45176" transform="matrix(1 0 0 -1 1321.62 191.234)" fill="#ABADB0" fill-opacity="0.5"/>
<rect x="1159.1" y="767.398" width="3.2287" height="3.67764" fill="#ABADB0" fill-opacity="0.5"/>
<rect x="438.211" y="647" width="3.2287" height="2.45176" fill="#ABADB0" fill-opacity="0.5"/>
<rect width="3.2287" height="2.45176" transform="matrix(1 0 0 -1 457.898 196.586)" fill="#ABADB0" fill-opacity="0.5"/>
<rect width="3.2287" height="2.45176" transform="matrix(1 0 0 -1 981.525 178.977)" fill="#ABADB0" fill-opacity="0.5"/>
<rect width="3.2287" height="2.45176" transform="matrix(1 0 0 -1 1258.12 191.234)" fill="#ABADB0" fill-opacity="0.5"/>
<rect x="1396.95" y="844.629" width="3.2287" height="3.67764" fill="#ABADB0" fill-opacity="0.5"/>
<rect x="676.057" y="707.066" width="3.2287" height="2.45176" fill="#ABADB0" fill-opacity="0.5"/>
<rect width="3.2287" height="1.22588" transform="matrix(1 0 0 -1 695.746 148.773)" fill="#ABADB0" fill-opacity="0.5"/>
<rect width="3.2287" height="1.22588" transform="matrix(1 0 0 -1 1219.37 131.168)" fill="#ABADB0" fill-opacity="0.5"/>
<rect width="3.2287" height="1.22588" transform="matrix(1 0 0 -1 1495.96 143.426)" fill="#ABADB0" fill-opacity="0.5"/>
<rect x="1262.42" y="844.629" width="3.2287" height="3.67764" fill="#ABADB0" fill-opacity="0.5"/>
<rect x="541.529" y="707.066" width="3.2287" height="2.45176" fill="#ABADB0" fill-opacity="0.5"/>
<rect width="3.2287" height="1.22588" transform="matrix(1 0 0 -1 561.217 148.773)" fill="#ABADB0" fill-opacity="0.5"/>
<rect width="3.2287" height="1.22588" transform="matrix(1 0 0 -1 1084.84 131.168)" fill="#ABADB0" fill-opacity="0.5"/>
<rect width="3.2287" height="1.22588" transform="matrix(1 0 0 -1 1361.44 143.426)" fill="#ABADB0" fill-opacity="0.5"/>
<rect x="1127.89" y="844.629" width="3.2287" height="3.67764" fill="#ABADB0" fill-opacity="0.5"/>
<rect x="407" y="707.066" width="3.2287" height="2.45176" fill="#ABADB0" fill-opacity="0.5"/>
<rect width="3.2287" height="1.22588" transform="matrix(1 0 0 -1 426.688 148.773)" fill="#ABADB0" fill-opacity="0.5"/>
<rect width="3.2287" height="1.22588" transform="matrix(1 0 0 -1 950.314 131.168)" fill="#ABADB0" fill-opacity="0.5"/>
<rect width="3.2287" height="1.22588" transform="matrix(1 0 0 -1 1226.91 143.426)" fill="#ABADB0" fill-opacity="0.5"/>
<path d="M386.225 435.062V443.031" stroke="#ABADB0" stroke-opacity="0.5"/>
<path d="M376 446.094H384.072" stroke="#ABADB0" stroke-opacity="0.5"/>
<path d="M386.225 448.547V451.612" stroke="#ABADB0" stroke-opacity="0.5"/>
<path d="M395.912 446.707H388.916" stroke="#ABADB0" stroke-opacity="0.5"/>
<path d="M256.225 475.062V483.031" stroke="#ABADB0" stroke-opacity="0.5"/>
<path d="M246 486.094H254.072" stroke="#ABADB0" stroke-opacity="0.5"/>
<path d="M256.225 488.547V491.612" stroke="#ABADB0" stroke-opacity="0.5"/>
<path d="M265.912 486.707H258.916" stroke="#ABADB0" stroke-opacity="0.5"/>
<path d="M1646.63 750.238V758.819" stroke="#ABADB0" stroke-opacity="0.5"/>
<path d="M1636.95 761.27H1644.48" stroke="#ABADB0" stroke-opacity="0.5"/>
<path d="M1655.25 761.27H1648.25" stroke="#ABADB0" stroke-opacity="0.5"/>
<path d="M1646.63 763.109V772.303" stroke="#ABADB0" stroke-opacity="0.5"/>
<path d="M1911.39 953.734V962.316" stroke="#ABADB0" stroke-opacity="0.5"/>
<path d="M1901.71 964.766H1909.24" stroke="#ABADB0" stroke-opacity="0.5"/>
<path d="M1920 964.766H1913.01" stroke="#ABADB0" stroke-opacity="0.5"/>
<path d="M1911.39 966.605V975.8" stroke="#ABADB0" stroke-opacity="0.5"/>
<path d="M543.768 401V408.355" stroke="#ABADB0" stroke-opacity="0.5"/>
<path d="M540 404.676H547.534" stroke="#ABADB0" stroke-opacity="0.5"/>
<path d="M543.768 472.102V479.457" stroke="#ABADB0" stroke-opacity="0.5"/>
<path d="M540 475.781H547.534" stroke="#ABADB0" stroke-opacity="0.5"/>
<path d="M184.576 947.605V954.961" stroke="#ABADB0" stroke-opacity="0.5"/>
<path d="M180.809 951.281H188.342" stroke="#ABADB0" stroke-opacity="0.5"/>
<path d="M605.113 472.102V479.457" stroke="#ABADB0" stroke-opacity="0.5"/>
<path d="M601.346 475.781H608.879" stroke="#ABADB0" stroke-opacity="0.5"/>
<path d="M666.457 401V408.355" stroke="#ABADB0" stroke-opacity="0.5"/>
<path d="M662.689 404.676H670.223" stroke="#ABADB0" stroke-opacity="0.5"/>
<path d="M666.457 472.102V479.457" stroke="#ABADB0" stroke-opacity="0.5"/>
<path d="M662.689 475.781H670.223" stroke="#ABADB0" stroke-opacity="0.5"/>
<path d="M727.803 401V408.355" stroke="#ABADB0" stroke-opacity="0.5"/>
<path d="M724.035 404.676H731.569" stroke="#ABADB0" stroke-opacity="0.5"/>
<path d="M727.803 472.102V479.457" stroke="#ABADB0" stroke-opacity="0.5"/>
<path d="M724.035 475.781H731.569" stroke="#ABADB0" stroke-opacity="0.5"/>
<path d="M789.146 401V408.355" stroke="#ABADB0" stroke-opacity="0.5"/>
<path d="M785.379 404.676H792.913" stroke="#ABADB0" stroke-opacity="0.5"/>
<path d="M789.146 472.102V479.457" stroke="#ABADB0" stroke-opacity="0.5"/>
<path d="M785.379 475.781H792.913" stroke="#ABADB0" stroke-opacity="0.5"/>
<path d="M850.494 401V408.355" stroke="#ABADB0" stroke-opacity="0.5"/>
<path d="M846.727 404.676H854.26" stroke="#ABADB0" stroke-opacity="0.5"/>
<path d="M850.494 472.102V479.457" stroke="#ABADB0" stroke-opacity="0.5"/>
<path d="M846.727 475.781H854.26" stroke="#ABADB0" stroke-opacity="0.5"/>
<path d="M911.838 401V408.355" stroke="#ABADB0" stroke-opacity="0.5"/>
<path d="M908.07 404.676H915.604" stroke="#ABADB0" stroke-opacity="0.5"/>
<path d="M911.838 472.102V479.457" stroke="#ABADB0" stroke-opacity="0.5"/>
<path d="M908.07 475.781H915.604" stroke="#ABADB0" stroke-opacity="0.5"/>
<path d="M61.3457 496.48V853.211" stroke="black"/>
<path d="M60.2695 893.664V939.022" stroke="black"/>
</svg>
