<svg width="42" height="39" viewBox="0 0 42 39" fill="none" xmlns="http://www.w3.org/2000/svg">
<g id="Group 5268">
<path id="Vector" d="M34.459 3.57958C34.4591 3.57978 34.4592 3.57989 34.4592 3.57988C34.4592 3.57987 34.4589 3.57923 34.4581 3.57751C34.4624 3.58082 34.4675 3.58527 34.4738 3.59121C34.4786 3.59578 34.4832 3.60032 34.4884 3.60549C34.49 3.60705 34.4916 3.60866 34.4933 3.61035C34.5002 3.61714 34.5083 3.62501 34.5168 3.63244L34.5676 3.57425L34.5168 3.63244C35.852 4.79976 37.0389 6.09668 38.0061 7.58489C38.422 8.22486 38.5493 8.96029 38.6786 9.70721C38.6892 9.76861 38.6998 9.83009 38.7106 9.89159C39.0869 12.0312 39.1901 14.1933 39.1333 16.3646C39.0896 18.0358 38.8981 19.6897 38.5585 21.3297C38.1497 23.3039 37.5014 25.1892 36.596 26.9883C36.5613 27.0572 36.5339 27.1329 36.4997 27.2268C36.4819 27.2759 36.4623 27.3299 36.4388 27.3906L36.5648 27.4741C36.7028 27.3409 36.8392 27.2151 36.9719 27.0926C37.253 26.8332 37.5182 26.5886 37.7501 26.3191C38.7009 25.2143 39.5263 24.0212 40.0471 22.6349C40.167 22.3159 40.2116 21.9858 40.2547 21.6674C40.2606 21.6244 40.2664 21.5815 40.2723 21.5389C40.3873 20.7166 40.4876 19.8896 40.5489 19.0603C40.5668 18.8176 40.5884 18.5741 40.6102 18.3299C40.6785 17.5612 40.7475 16.7854 40.7029 16.0067C40.6834 15.6674 40.7166 15.337 40.7508 14.9969C40.7579 14.9261 40.7651 14.855 40.7718 14.7832C40.814 15.2264 40.8756 15.6694 40.9369 16.1104C40.9693 16.343 41.0015 16.575 41.0308 16.8063C41.1169 17.4854 41.1783 18.1629 41.1461 18.8477C41.0849 20.1499 40.9772 21.4374 40.6392 22.6984C40.6172 22.7804 40.5953 22.8623 40.5734 22.9442C40.2613 24.1114 39.9509 25.2725 39.494 26.3866C38.6962 28.332 37.5708 30.0773 36.2058 31.6753C34.8706 33.2386 33.3228 34.5543 31.5922 35.6618C29.2563 37.1566 26.7609 38.2426 24.0097 38.6748C22.32 38.9402 20.6236 38.983 18.9139 38.8506C16.9502 38.6986 15.0467 38.2927 13.1885 37.653C13.161 37.6436 13.1317 37.6362 13.1059 37.6298C13.1017 37.6288 13.0977 37.6278 13.0937 37.6268C13.0635 37.6192 13.0379 37.6121 13.0151 37.6027C12.984 37.5899 12.9604 37.5738 12.9442 37.5461C12.9624 37.527 12.9847 37.5169 13.0131 37.5096C13.0351 37.504 13.0588 37.5007 13.088 37.4966L13.0884 37.4965C13.1159 37.4927 13.1485 37.4881 13.1806 37.4796C13.6886 37.3453 14.1532 37.1147 14.5719 36.8035C16.1122 35.6587 17.2242 34.168 18.072 32.47C18.1272 32.3593 18.1839 32.2487 18.2408 32.1377C18.5358 31.5623 18.8358 30.9772 18.9678 30.3156C19.3049 28.6262 18.6319 27.1495 17.1117 26.3247C16.9884 26.2578 16.8603 26.1965 16.7272 26.1328C16.6611 26.1012 16.5938 26.069 16.5252 26.0352L16.5252 26.0351L16.5223 26.0338C15.7468 25.6906 14.9586 25.4791 14.148 25.3748C14.009 25.3569 13.9475 25.3185 13.9192 25.2776C13.8901 25.2355 13.8805 25.1687 13.9 25.0556C13.962 24.6956 14.0546 24.3454 14.1966 24.0087C14.9216 22.2888 15.9459 20.7432 17.0007 19.2055C17.8996 17.895 18.8955 16.6613 19.8942 15.4243C20.0942 15.1766 20.2942 14.9288 20.4937 14.6802C21.1931 13.8082 21.7703 12.8392 21.9689 11.688C22.0358 11.3008 22.0197 10.9295 21.927 10.5581C21.876 10.3538 21.7877 10.1998 21.6468 10.1089C21.5061 10.0182 21.328 10 21.1183 10.0344C20.3244 10.1646 19.6595 10.5668 19.0377 11.0242C18.6004 11.3458 18.1612 11.6755 17.7701 12.0651C17.7643 12.0709 17.759 12.0762 17.7542 12.0811C17.7354 12.1002 17.7231 12.1127 17.7078 12.1221C17.7006 12.1265 17.6931 12.1299 17.6837 12.1312C17.6726 12.1044 17.6745 12.0786 17.6837 12.0483C17.6905 12.0259 17.701 12.0024 17.7141 11.9751C17.716 11.9709 17.7181 11.9666 17.7203 11.9621C17.7313 11.9393 17.7438 11.9134 17.7536 11.8878C18.3583 10.3197 19.4256 9.11938 20.7677 8.13158C20.8624 8.06186 20.9413 8.03716 21.0154 8.04026C21.0913 8.04344 21.1738 8.07626 21.2743 8.14462C22.3462 8.87386 22.9124 9.94436 23.3077 11.1473C23.3762 11.3557 23.4422 11.5624 23.4872 11.772C23.5407 12.0216 23.5156 12.2592 23.3898 12.4911C23.2455 12.7569 23.1134 13.0336 23.0078 13.3187C22.9911 13.3636 22.9683 13.4094 22.9428 13.4605C22.9405 13.4651 22.9382 13.4697 22.9359 13.4743C22.9086 13.5292 22.8791 13.5897 22.8587 13.6523C22.8381 13.7154 22.8254 13.7845 22.8342 13.8573C22.8432 13.931 22.8738 14.0032 22.9315 14.0728C22.9847 14.1368 23.0349 14.204 23.0865 14.2732C23.1017 14.2935 23.1169 14.3139 23.1324 14.3344C23.1999 14.4241 23.2711 14.5151 23.3509 14.5974C23.512 14.7638 23.7108 14.8973 23.9953 14.9243C25.2901 15.0471 26.539 15.2974 27.6521 15.9927C28.7504 16.6788 29.3066 17.6575 29.5137 18.9619C29.725 20.2922 29.2357 21.3562 28.5795 22.425C28.0879 23.2258 27.5167 23.9665 26.9426 24.711C26.6913 25.0368 26.4394 25.3635 26.1934 25.6961C24.7971 27.5846 23.588 29.6045 23.1345 31.9735C23.0027 32.662 23.0406 33.3663 23.417 34.0129C23.561 34.2604 23.755 34.4732 24.0283 34.5812C24.9783 34.9566 25.9331 34.9073 26.9563 34.5921L27.1776 34.5239L26.9598 34.4453C26.7407 34.3663 26.5343 34.3415 26.3425 34.3252C26.3088 34.3224 26.2758 34.3198 26.2432 34.3172C26.0883 34.305 25.9459 34.2938 25.8066 34.2595C24.9313 34.044 24.1743 33.7337 23.8006 32.8465C23.5494 32.25 23.745 31.7061 23.9496 31.1371C23.9554 31.121 23.9612 31.1049 23.967 31.0887C24.6094 29.2994 25.6984 27.8063 27.1132 26.5462C27.4724 26.2262 27.8393 25.9127 28.2069 25.5986C29.1934 24.7555 30.1848 23.9082 31.0469 22.9206C32.2245 21.5715 33.2216 20.1135 33.8616 18.4236C33.9459 18.2011 33.9959 17.9727 34.0378 17.7441C34.0514 17.6699 34.0641 17.5962 34.0767 17.5226C34.0923 17.4321 34.1078 17.3417 34.1249 17.2511C34.2098 17.4491 34.2563 17.7463 34.2563 18.1759C34.2563 18.7422 34.176 19.5208 34.015 20.567L34.1561 20.6215C34.2682 20.4516 34.3787 20.2886 34.4864 20.1295C34.7143 19.7931 34.9304 19.474 35.1264 19.1447C36.0447 17.6016 36.906 16.023 37.4604 14.295C37.7426 13.4155 37.901 12.5052 37.9591 11.5956C38.0023 10.9176 37.6838 10.2875 37.2669 9.76069C36.8494 9.23331 36.6525 8.97822 36.5228 8.70209C36.3996 8.43986 36.3363 8.15736 36.211 7.59779C36.2043 7.56763 36.1974 7.53667 36.1902 7.50487C35.8742 6.09553 35.4283 4.72172 34.459 3.57958ZM34.459 3.57958C34.459 3.57958 34.459 3.57958 34.459 3.57958L34.459 3.57958Z" fill="#CCDBDE" stroke="#CCDBDE" stroke-width="0.154763"/>
<path id="Vector_2" d="M10.4764 19.3097C10.5164 19.2737 10.5588 19.2519 10.6135 19.2516C10.6244 19.2682 10.6252 19.2795 10.6249 19.2872C10.6241 19.3048 10.6169 19.3222 10.6023 19.3573L10.6013 19.3595C9.93608 20.9566 10.3558 22.4039 11.2156 23.7659C11.4498 24.1369 11.6996 24.509 12.0185 24.8307C12.1117 24.9247 12.1669 25.0216 12.1885 25.1244C12.2101 25.2274 12.1995 25.3434 12.1494 25.4781C11.7988 26.421 11.6328 27.4079 11.4992 28.3908C11.3631 29.392 11.3074 30.4032 11.4217 31.4168C11.562 32.66 11.8846 33.8447 12.75 34.8248C12.8743 34.9655 13.0172 35.0813 13.1682 35.1975C13.1972 35.2198 13.2265 35.2422 13.2561 35.2647C13.3437 35.3314 13.4338 35.4001 13.5263 35.4761C13.2119 35.5205 12.947 35.4622 12.679 35.4032C12.6545 35.3978 12.6301 35.3924 12.6055 35.3871C11.4646 35.1401 10.4743 34.5566 9.56354 33.8504C7.66239 32.3764 6.04357 30.6301 4.80327 28.5642C3.56364 26.4994 2.89363 24.2123 2.36659 21.8733C2.05551 20.4927 1.85654 19.0905 1.68255 17.6836C1.62405 17.2106 1.58528 16.7362 1.54387 16.2295C1.52432 15.9902 1.50418 15.7437 1.48109 15.4868L1.33314 15.4627C1.03587 16.1415 0.881059 16.7655 0.806448 17.4034C0.67678 18.5119 0.652725 19.6269 0.733052 20.74C0.848198 22.3356 1.12006 23.9071 1.51079 25.4568C1.58498 25.751 1.66578 26.0463 1.74633 26.3408C1.80931 26.571 1.87213 26.8006 1.93154 27.0288C1.955 27.1189 1.97033 27.2091 1.98496 27.3005C1.37122 25.7076 0.771546 24.1185 0.459293 22.4395C0.133909 20.6899 -0.00064328 18.9349 0.122437 17.1538C0.220495 15.7347 0.436367 14.3435 0.83396 12.9861C1.63137 10.2638 2.75093 7.69572 4.54958 5.47961C6.4629 3.12221 8.78404 1.29237 11.6125 0.144367C11.6341 0.135628 11.6559 0.124714 11.6747 0.115332C11.6785 0.113441 11.6821 0.111613 11.6856 0.109877C11.7082 0.0986875 11.7271 0.0899813 11.745 0.0842217C11.7648 0.0778814 11.782 0.075405 11.7994 0.0790628C11.7992 0.0799292 11.7989 0.0806864 11.7987 0.0813448C11.7969 0.0863859 11.7933 0.0920841 11.7846 0.0994677C11.7749 0.107567 11.7617 0.115532 11.7425 0.125561C11.7384 0.127679 11.7339 0.130017 11.7289 0.132528C11.7137 0.140289 11.6953 0.149703 11.6793 0.159382C9.77172 1.31543 8.04381 2.70097 6.54396 4.35026C5.48345 5.51643 4.57666 6.8071 4.24282 8.41297C4.17399 8.74409 4.16727 9.08059 4.2821 9.41172C4.37376 9.67604 4.55011 9.85775 4.76696 9.92393C4.98458 9.99035 5.22805 9.93582 5.44297 9.75763C5.90545 9.37419 6.30301 8.92751 6.61397 8.40633L6.61465 8.4052C6.69373 8.27265 6.7699 8.145 6.86737 8.03149C4.92988 12.6703 4.62033 17.4273 5.53168 22.2945C5.53061 22.2909 5.52954 22.2873 5.52846 22.2837C5.50704 22.2126 5.48407 22.1399 5.45549 22.0685C5.38038 21.881 5.30807 21.6927 5.22714 21.4819C5.18919 21.3831 5.14935 21.2793 5.10643 21.1684L4.95696 21.193C4.91361 22.1872 5.20931 23.4045 5.67177 24.4697C6.13311 25.5323 6.76839 26.462 7.41773 26.8663L7.4952 26.9145L7.53012 26.8302C7.56774 26.7394 7.55894 26.6581 7.53554 26.5882C7.52422 26.5544 7.50943 26.5231 7.49559 26.4953C7.49086 26.4859 7.48638 26.4771 7.48212 26.4687C7.47314 26.4511 7.4651 26.4353 7.45758 26.4188C6.67699 24.7025 6.04598 22.9397 5.73187 21.0799C5.47245 19.5439 5.39792 18.0007 5.5374 16.4431C5.60338 15.7063 5.7517 14.9895 5.90129 14.2665C5.92894 14.1329 5.95663 13.9991 5.98384 13.8649C5.98816 13.8436 5.99191 13.823 5.99554 13.8031C6.01045 13.7211 6.0234 13.65 6.06524 13.5887C6.06518 13.6307 6.06511 13.6728 6.06504 13.7149C6.06468 13.9295 6.06432 14.1445 6.06567 14.3593C6.07292 15.5088 6.69354 16.3117 7.57737 16.9067C8.08229 17.2466 8.65548 17.1234 9.14777 16.8748C9.83377 16.5284 10.4464 16.0774 10.9662 15.4738C10.9613 15.4879 10.9554 15.5018 10.9488 15.5158C10.9337 15.5478 10.9154 15.5786 10.8947 15.6134C10.8917 15.6183 10.8887 15.6233 10.8857 15.6285C10.8627 15.6671 10.8378 15.7104 10.818 15.758C10.0251 17.2438 9.47534 18.7863 9.20103 20.4278C9.07429 21.1862 8.94903 21.9497 8.9495 22.7321L8.94964 22.9782L9.09037 22.7763C9.2375 22.5651 9.31248 22.3346 9.36577 22.1054C9.38815 22.0091 9.40697 21.9118 9.42545 21.8162C9.42893 21.7982 9.43239 21.7803 9.43586 21.7625C9.45795 21.649 9.48055 21.5381 9.50962 21.4299C9.69624 20.7351 9.90793 20.0664 10.3315 19.4902C10.3417 19.4762 10.3515 19.4626 10.3611 19.4494C10.4004 19.3948 10.4348 19.347 10.4764 19.3097Z" fill="#CCDBDE" stroke="#CCDBDE" stroke-width="0.154763"/>
<path id="Vector_3" d="M15.0844 10.9626L15.0846 10.9624C16.0704 9.75531 17.1358 8.64769 18.2685 7.60468C16.9938 9.17794 16.0259 10.9149 15.7107 13.003L15.8567 13.0486C16.0876 12.5773 16.3898 12.1564 16.6988 11.7258C16.7591 11.6419 16.8196 11.5577 16.8798 11.4726C16.9014 11.5047 16.9097 11.5362 16.9119 11.5671C16.9158 11.6236 16.8997 11.6836 16.8791 11.757C16.5611 12.892 16.5998 14.0411 16.6834 15.1871C16.687 15.2369 16.6905 15.2868 16.6941 15.3368C16.7297 15.8392 16.7657 16.3477 16.904 16.8452C16.9301 16.9393 16.9115 17.0208 16.8427 17.0913C15.5156 18.4521 14.6863 20.1193 13.8633 21.7738C13.693 22.116 13.523 22.4578 13.3489 22.7962C13.2462 22.996 13.1448 23.1967 13.0396 23.405C13.004 23.4754 12.968 23.5467 12.9314 23.619C12.8773 23.5641 12.837 23.5018 12.802 23.4352C12.778 23.3894 12.757 23.3426 12.7352 23.2941L12.7337 23.2906C12.7117 23.2417 12.6887 23.1907 12.6624 23.142C11.9025 21.7365 11.4526 20.2461 11.4736 18.6418C11.4918 17.2536 11.9172 15.9712 12.5615 14.7441C13.2662 13.4018 14.1052 12.1508 15.0844 10.9626Z" fill="#CCDBDE" stroke="#CCDBDE" stroke-width="0.154763"/>
<path id="Vector_4" d="M18.883 15.1907C18.8437 15.2361 18.8051 15.2803 18.7672 15.3237C18.6598 15.4469 18.558 15.5636 18.4603 15.6831C18.3665 15.7977 18.2998 15.825 18.2589 15.8211C18.2194 15.8173 18.1612 15.7797 18.0963 15.6471C17.6945 14.8264 17.3611 13.4103 18.3957 12.3942C18.8171 11.9804 19.2633 11.6255 19.8118 11.4156C19.9625 11.3579 20.1078 11.2839 20.2486 11.2123C20.2825 11.195 20.3162 11.1779 20.3495 11.1612C20.4794 11.0962 20.5934 11.0484 20.7011 11.0428C20.8023 11.0375 20.9049 11.0693 21.0147 11.1829C21.1644 11.3381 21.2494 11.473 21.2781 11.6031C21.3062 11.7302 21.2831 11.864 21.1922 12.0234C20.8844 12.5636 20.5584 13.0892 20.1681 13.5712C19.8965 13.9067 19.6289 14.2462 19.3577 14.5902C19.2012 14.7888 19.0434 14.989 18.883 15.1907Z" fill="#CCDBDE" stroke="#CCDBDE" stroke-width="0.154763"/>
</g>
</svg>
